<?xml version="1.0" encoding="iso-8859-1"?>
<!-- Generator: Adobe Illustrator 19.0.0, SVG Export Plug-In . SVG Version: 6.00 Build 0)  -->
<svg version="1.1" id="Capa_1" xmlns="http://www.w3.org/2000/svg" xmlns:xlink="http://www.w3.org/1999/xlink" x="0px" y="0px"
	 viewBox="0 0 206 206" style="enable-background:new 0 0 206 206;" xml:space="preserve">
<g>
	<path d="M130.765,106.671c-4.179,0-7.655,1.416-10.049,4.097c-2.147,2.402-3.33,5.668-3.33,9.198
		c0,6.483,4.234,13.462,13.528,13.462c4.18,0,7.655-1.416,10.049-4.097c2.147-2.402,3.329-5.669,3.329-9.198
		C144.292,113.649,140.059,106.671,130.765,106.671z"/>
	<path d="M181.333,0h-155C17.389,0,9.5,7.327,9.5,16v174c0,7.381,2.422,16,8.782,16c5.357,0,14-8.122,14.927-9.017l7.147-6.744
		c1.167-1.128,2.763-1.749,4.457-1.749c1.693,0,3.279,0.621,4.447,1.749l6.952,6.713C60.752,201.338,68.646,206,74.33,206
		c5.686,0,13.578-4.662,18.117-9.048l6.95-6.713c1.167-1.128,2.743-1.749,4.437-1.749c1.693,0,3.269,0.621,4.437,1.749l6.947,6.713
		c4.539,4.386,12.431,9.048,18.115,9.048c5.686,0,13.577-4.662,18.115-9.048l6.949-6.713c1.167-1.128,2.742-1.749,4.437-1.749
		c1.693,0,3.269,0.621,4.437,1.749l6.947,6.713c3.497,3.379,9.864,9.048,14.333,9.048c5.233,0,7.949-5.683,7.949-16V16
		C196.5,7.028,190.024,0,181.333,0z M57.974,43.706c4.719-5.143,11.395-7.861,19.307-7.861c17.004,0,25.902,12.608,25.902,25.062
		c0,6.54-2.313,12.65-6.514,17.206c-4.739,5.139-11.443,7.856-19.388,7.856c-16.929,0-25.787-12.608-25.787-25.062
		C51.494,54.37,53.795,48.261,57.974,43.706z M72.008,135H55.476l80.849-89.663l16.426-0.414L72.008,135z M149.784,137.002
		c-4.648,5.042-11.225,7.707-19.019,7.707c-16.608,0-25.296-12.368-25.296-24.585c0-6.413,2.258-12.405,6.357-16.873
		c4.629-5.045,11.178-7.711,18.939-7.711c16.681,0,25.408,12.368,25.408,24.585C156.173,126.539,153.904,132.533,149.784,137.002z"
		/>
	<path d="M77.433,74.163c4.192,0,7.677-1.413,10.077-4.085c2.148-2.393,3.332-5.647,3.332-9.162c0-6.462-4.243-13.417-13.561-13.417
		c-9.5,0-13.753,6.654-13.753,13.249C63.528,67.209,67.88,74.163,77.433,74.163z"/>
</g>
<g>
</g>
<g>
</g>
<g>
</g>
<g>
</g>
<g>
</g>
<g>
</g>
<g>
</g>
<g>
</g>
<g>
</g>
<g>
</g>
<g>
</g>
<g>
</g>
<g>
</g>
<g>
</g>
<g>
</g>
</svg>
